<!-- Generator: Adobe Illustrator 21.0.2, SVG Export Plug-In  -->
<svg version="1.1"
	 xmlns="http://www.w3.org/2000/svg" xmlns:xlink="http://www.w3.org/1999/xlink" xmlns:a="http://ns.adobe.com/AdobeSVGViewerExtensions/3.0/"
	 x="0px" y="0px" width="728px" height="230px" viewBox="0 0 728 230" style="enable-background:new 0 0 728 230;"
	 xml:space="preserve">
<style type="text/css">
	.st0{fill:#FF0000;stroke:#FF0000;stroke-width:2;stroke-miterlimit:10;}
	.st1{fill:#626465;}
	.st2{fill:#545456;}
	.st3{fill:#459CDD;}
	.st4{fill:#C8C8CB;}
	.st5{fill:#FFFFFF;stroke:#FF0000;stroke-width:2;stroke-miterlimit:10;}
</style>
<defs>
</defs>
<path d="M678.9,215h-45.7c-2.8,0-5.1-2.3-5.1-5.1V69.1c0-2.8,2.3-5.1,5.1-5.1h45.7c2.8,0,5.1,2.3,5.1,5.1v140.7
	C684,212.7,681.7,215,678.9,215z"/>
<path d="M483.9,215h-45.7c-2.8,0-5.1-2.3-5.1-5.1V5.1c0-2.8,2.3-5.1,5.1-5.1h45.7c2.8,0,5.1,2.3,5.1,5.1v204.7
	C489,212.7,486.7,215,483.9,215z"/>
<path d="M287.9,215h-45.7c-2.8,0-5.1-2.3-5.1-5.1V5.1c0-2.8,2.3-5.1,5.1-5.1h45.7c2.8,0,5.1,2.3,5.1,5.1v204.7
	C293,212.7,290.7,215,287.9,215z"/>
<path d="M95.9,218H50.1c-2.8,0-5.1-2.3-5.1-5.1V8.1C45,5.3,47.3,3,50.1,3h45.7c2.8,0,5.1,2.3,5.1,5.1v204.7
	C101,215.7,98.7,218,95.9,218z"/>
<circle class="st0" cx="673.5" cy="33.5" r="9.5"/>
<circle class="st0" cx="637.5" cy="33.5" r="9.5"/>
<path class="st1" d="M106.5,176H37.5c-4.1,0-7.5-3.4-7.5-7.5V82.5c0-4.1,3.4-7.5,7.5-7.5h69.1c4.1,0,7.5,3.4,7.5,7.5v86.1
	C114,172.6,110.6,176,106.5,176z"/>
<g>
	<path class="st2" d="M718.5,191L718.5,191c-5.2,0-9.5-4.3-9.5-9.5v-53c0-5.2,4.3-9.5,9.5-9.5l0,0c5.2,0,9.5,4.3,9.5,9.5v53
		C728,186.7,723.7,191,718.5,191z"/>
	<path class="st2" d="M592.5,191L592.5,191c-5.2,0-9.5-4.3-9.5-9.5v-53c0-5.2,4.3-9.5,9.5-9.5l0,0c5.2,0,9.5,4.3,9.5,9.5v53
		C602,186.7,597.7,191,592.5,191z"/>
	<path class="st3" d="M607.5,75L607.5,75c-0.8,0-1.5-0.7-1.5-1.5v-39c0-0.8,0.7-1.5,1.5-1.5l0,0c0.8,0,1.5,0.7,1.5,1.5v39
		C609,74.3,608.3,75,607.5,75z"/>
	<path class="st3" d="M704.5,75L704.5,75c-0.8,0-1.5-0.7-1.5-1.5v-39c0-0.8,0.7-1.5,1.5-1.5l0,0c0.8,0,1.5,0.7,1.5,1.5v39
		C706,74.3,705.3,75,704.5,75z"/>
	<path class="st3" d="M607.5,218L607.5,218c-0.8,0-1.5-0.7-1.5-1.5v-39c0-0.8,0.7-1.5,1.5-1.5l0,0c0.8,0,1.5,0.7,1.5,1.5v39
		C609,217.3,608.3,218,607.5,218z"/>
	<path class="st3" d="M703.5,218L703.5,218c-0.8,0-1.5-0.7-1.5-1.5v-39c0-0.8,0.7-1.5,1.5-1.5l0,0c0.8,0,1.5,0.7,1.5,1.5v39
		C705,217.3,704.3,218,703.5,218z"/>
	<rect x="628" y="45" class="st4" width="19" height="19"/>
	<rect x="664" y="46" class="st4" width="19" height="19"/>
	<path class="st3" d="M698.7,188h-86.3c-3.5,0-6.3-2.8-6.3-6.3V67.3c0-3.5,2.8-6.3,6.3-6.3h86.3c3.5,0,6.3,2.8,6.3,6.3v114.3
		C705,185.2,702.2,188,698.7,188z"/>
	<path class="st1" d="M690.5,183h-69.1c-4.1,0-7.5-3.4-7.5-7.5V89.5c0-4.1,3.4-7.5,7.5-7.5h69.1c4.1,0,7.5,3.4,7.5,7.5v86.1
		C698,179.6,694.6,183,690.5,183z"/>
</g>
<g>
	<path class="st2" d="M545.5,165.8L545.5,165.8c-4.9,1.8-10.4-0.7-12.2-5.6l-18.6-49.6c-1.8-4.9,0.7-10.4,5.6-12.2v0
		c4.9-1.8,10.4,0.7,12.2,5.6l18.6,49.6C552.9,158.4,550.3,163.9,545.5,165.8z"/>
	<path class="st2" d="M427.4,209.9L427.4,209.9c-4.9,1.8-10.4-0.7-12.2-5.6l-18.6-49.6c-1.8-4.9,0.7-10.4,5.6-12.2h0
		c4.9-1.8,10.4,0.7,12.2,5.6l18.6,49.6C434.8,202.6,432.3,208.1,427.4,209.9z"/>
	<path class="st3" d="M400.8,96L400.8,96c-0.8,0.3-1.6-0.1-1.9-0.9l-13.7-36.5c-0.3-0.8,0.1-1.6,0.9-1.9l0,0
		c0.8-0.3,1.6,0.1,1.9,0.9l13.7,36.5C402,94.9,401.6,95.7,400.8,96z"/>
	<path class="st3" d="M491.7,62L491.7,62c-0.8,0.3-1.6-0.1-1.9-0.9l-13.7-36.5c-0.3-0.8,0.1-1.6,0.9-1.9h0c0.8-0.3,1.6,0.1,1.9,0.9
		l13.7,36.5C492.9,60.9,492.5,61.7,491.7,62z"/>
	<path class="st3" d="M450.9,230L450.9,230c-0.8,0.3-1.6-0.1-1.9-0.9l-13.7-36.5c-0.3-0.8,0.1-1.6,0.9-1.9l0,0
		c0.8-0.3,1.6,0.1,1.9,0.9l13.7,36.5C452.1,228.8,451.7,229.7,450.9,230z"/>
	<path class="st3" d="M540.9,196.3L540.9,196.3c-0.8,0.3-1.6-0.1-1.9-0.9l-13.7-36.5c-0.3-0.8,0.1-1.6,0.9-1.9l0,0
		c0.8-0.3,1.6,0.1,1.9,0.9l13.7,36.5C542,195.2,541.6,196,540.9,196.3z"/>
	<rect x="412.3" y="56.8" transform="matrix(0.9366 -0.3503 0.3503 0.9366 3.5012 151.9662)" class="st4" width="19" height="19"/>
	<rect x="446.3" y="45.1" transform="matrix(0.9366 -0.3503 0.3503 0.9366 9.751 163.162)" class="st4" width="19" height="19"/>
	<path class="st3" d="M525.8,169.9L445,200.2c-3.3,1.2-6.9-0.5-8.1-3.7L396.8,89.4c-1.2-3.3,0.5-6.9,3.7-8.1L481.3,51
		c3.3-1.2,6.9,0.5,8.1,3.7l40.1,107.1C530.8,165,529.1,168.7,525.8,169.9z"/>
	<path class="st1" d="M516.5,168.1l-64.7,24.2c-3.8,1.4-8.2-0.5-9.6-4.4L412,107.3c-1.4-3.8,0.5-8.2,4.4-9.6l64.7-24.2
		c3.8-1.4,8.2,0.5,9.6,4.4l30.2,80.6C522.3,162.3,520.3,166.6,516.5,168.1z"/>
</g>
<g>
	<path class="st2" d="M303.8,208.4L303.8,208.4c-4.9-1.8-7.5-7.2-5.8-12.1l17.8-49.9c1.8-4.9,7.2-7.5,12.1-5.8h0
		c4.9,1.8,7.5,7.2,5.8,12.1L316,202.6C314.2,207.5,308.7,210.1,303.8,208.4z"/>
	<path class="st2" d="M185.2,166L185.2,166c-4.9-1.8-7.5-7.2-5.8-12.1l17.8-49.9c1.8-4.9,7.2-7.5,12.1-5.8h0
		c4.9,1.8,7.5,7.2,5.8,12.1l-17.8,49.9C195.5,165.2,190.1,167.8,185.2,166z"/>
	<path class="st3" d="M238.3,61.8L238.3,61.8c-0.8-0.3-1.2-1.1-0.9-1.9l13.1-36.7c0.3-0.8,1.1-1.2,1.9-0.9l0,0
		c0.8,0.3,1.2,1.1,0.9,1.9l-13.1,36.7C239.9,61.7,239,62.1,238.3,61.8z"/>
	<path class="st3" d="M329.6,94.4L329.6,94.4c-0.8-0.3-1.2-1.1-0.9-1.9l13.1-36.7c0.3-0.8,1.1-1.2,1.9-0.9v0
		c0.8,0.3,1.2,1.1,0.9,1.9l-13.1,36.7C331.3,94.3,330.4,94.7,329.6,94.4z"/>
	<path class="st3" d="M190.2,196.5L190.2,196.5c-0.8-0.3-1.2-1.1-0.9-1.9l13.1-36.7c0.3-0.8,1.1-1.2,1.9-0.9l0,0
		c0.8,0.3,1.2,1.1,0.9,1.9l-13.1,36.7C191.8,196.4,191,196.8,190.2,196.5z"/>
	<path class="st3" d="M280.6,228.8L280.6,228.8c-0.8-0.3-1.2-1.1-0.9-1.9l13.1-36.7c0.3-0.8,1.1-1.2,1.9-0.9l0,0
		c0.8,0.3,1.2,1.1,0.9,1.9l-13.1,36.7C282.3,228.6,281.4,229,280.6,228.8z"/>
	<rect x="263.9" y="43.1" transform="matrix(0.9418 0.3361 -0.3361 0.9418 33.5743 -88.8285)" class="st4" width="19" height="19"/>
	<rect x="297.5" y="56.1" transform="matrix(0.9418 0.3361 -0.3361 0.9418 39.9096 -99.3521)" class="st4" width="19" height="19"/>
	<path class="st3" d="M286.2,198.9l-81.3-29c-3.3-1.2-5-4.8-3.8-8.1l38.4-107.7c1.2-3.3,4.8-5,8.1-3.8l81.3,29
		c3.3,1.2,5,4.8,3.8,8.1L294.2,195C293.1,198.3,289.4,200,286.2,198.9z"/>
	<path class="st1" d="M280.2,191.4l-65.1-23.2c-3.9-1.4-5.9-5.7-4.5-9.5l28.9-81.1c1.4-3.9,5.7-5.9,9.5-4.5l65.1,23.2
		c3.9,1.4,5.9,5.7,4.5,9.5l-28.9,81.1C288.3,190.8,284,192.8,280.2,191.4z"/>
</g>
<g>
	<path class="st2" d="M135.5,191L135.5,191c-5.2,0-9.5-4.3-9.5-9.5v-53c0-5.2,4.3-9.5,9.5-9.5h0c5.2,0,9.5,4.3,9.5,9.5v53
		C145,186.7,140.7,191,135.5,191z"/>
	<path class="st2" d="M9.5,191L9.5,191c-5.2,0-9.5-4.3-9.5-9.5v-53c0-5.2,4.3-9.5,9.5-9.5h0c5.2,0,9.5,4.3,9.5,9.5v53
		C19,186.7,14.7,191,9.5,191z"/>
	<path class="st3" d="M24.5,75L24.5,75c-0.8,0-1.5-0.7-1.5-1.5v-39c0-0.8,0.7-1.5,1.5-1.5h0c0.8,0,1.5,0.7,1.5,1.5v39
		C26,74.3,25.3,75,24.5,75z"/>
	<path class="st3" d="M121.5,75L121.5,75c-0.8,0-1.5-0.7-1.5-1.5v-39c0-0.8,0.7-1.5,1.5-1.5l0,0c0.8,0,1.5,0.7,1.5,1.5v39
		C123,74.3,122.3,75,121.5,75z"/>
	<path class="st3" d="M24.5,218L24.5,218c-0.8,0-1.5-0.7-1.5-1.5v-39c0-0.8,0.7-1.5,1.5-1.5h0c0.8,0,1.5,0.7,1.5,1.5v39
		C26,217.3,25.3,218,24.5,218z"/>
	<path class="st3" d="M120.5,218L120.5,218c-0.8,0-1.5-0.7-1.5-1.5v-39c0-0.8,0.7-1.5,1.5-1.5l0,0c0.8,0,1.5,0.7,1.5,1.5v39
		C122,217.3,121.3,218,120.5,218z"/>
	<rect x="45" y="45" class="st4" width="19" height="19"/>
	<rect x="81" y="46" class="st4" width="19" height="19"/>
	<path class="st3" d="M115.7,188H29.3c-3.5,0-6.3-2.8-6.3-6.3V67.3c0-3.5,2.8-6.3,6.3-6.3h86.3c3.5,0,6.3,2.8,6.3,6.3v114.3
		C122,185.2,119.2,188,115.7,188z"/>
	<path class="st1" d="M107.5,183H38.5c-4.1,0-7.5-3.4-7.5-7.5V89.5c0-4.1,3.4-7.5,7.5-7.5h69.1c4.1,0,7.5,3.4,7.5,7.5v86.1
		C115,179.6,111.6,183,107.5,183z"/>
</g>
<circle class="st5" cx="54.5" cy="33.5" r="9.5"/>
<circle class="st5" cx="91.5" cy="33.5" r="9.5"/>
<circle class="st5" cx="280.5" cy="32.5" r="9.5"/>
<circle class="st5" cx="448.5" cy="34.5" r="9.5"/>
<circle class="st0" cx="413.5" cy="45.5" r="9.5"/>
<circle class="st0" cx="314.5" cy="44.5" r="9.5"/>
</svg>
